<?xml version="1.0" encoding="utf-8"?>
<!-- Generator: Adobe Illustrator 21.0.0, SVG Export Plug-In . SVG Version: 6.00 Build 0)  -->
<svg version="1.1" id="Layer_1" xmlns="http://www.w3.org/2000/svg" xmlns:xlink="http://www.w3.org/1999/xlink" x="0px" y="0px"
	 viewBox="0 0 216.7 162.7" style="enable-background:new 0 0 216.7 162.7;" xml:space="preserve">
<style type="text/css">
	.st0{fill:#4D7292;}
	.st1{fill:#FFFFFF;}
	.st2{fill:#555555;}
	.st3{fill:#989897;}
</style>
<g>
	<g>
		<rect class="st0" width="216.7" height="117.7"/>
		<rect x="8" y="7.8" class="st1" width="200.7" height="102"/>
	</g>
	<g>
		<path class="st2" d="M58,31.8c-0.9-0.9-1.4-2-1.4-3.3c0-1.3,0.5-2.4,1.4-3.4c0.9-0.9,2.1-1.4,3.5-1.4c1.4,0,2.6,0.4,3.5,1.3
			c0.9,0.9,1.4,2,1.4,3.3c0,1.4-0.5,2.5-1.4,3.5c-0.9,0.9-2.1,1.4-3.5,1.4C60.1,33.2,58.9,32.7,58,31.8z M57.9,40.9h7.3v40.2h-7.3
			V40.9z"/>
		<path class="st2" d="M114.6,40.9L97,81.1h-7.4L72,40.9h7.6l13.8,32.2l14.1-32.2H114.6z"/>
		<path class="st2" d="M151.6,43.1c3.1,1.7,5.5,4.1,7.2,7.2c1.7,3.1,2.6,6.6,2.6,10.7c0,4-0.9,7.6-2.6,10.7
			c-1.7,3.1-4.2,5.5-7.2,7.2c-3.1,1.7-6.6,2.6-10.5,2.6c-2.9,0-5.5-0.6-7.9-1.7c-2.4-1.1-4.4-2.7-6.1-4.9v20.8h-7.3V40.9h7v6.4
			c1.6-2.2,3.7-3.9,6.1-5c2.5-1.1,5.2-1.7,8.2-1.7C145.1,40.6,148.5,41.4,151.6,43.1z M147.5,73.4c2-1.2,3.7-2.9,4.9-5
			c1.2-2.1,1.8-4.6,1.8-7.4c0-2.8-0.6-5.2-1.8-7.4c-1.2-2.1-2.8-3.8-4.9-5c-2-1.2-4.4-1.7-6.9-1.7c-2.5,0-4.8,0.6-6.9,1.8
			c-2,1.2-3.7,2.8-4.9,5c-1.2,2.1-1.8,4.6-1.8,7.4c0,2.8,0.6,5.2,1.7,7.4c1.2,2.1,2.8,3.8,4.9,5c2.1,1.2,4.4,1.8,6.9,1.8
			C143.1,75.2,145.4,74.6,147.5,73.4z"/>
	</g>
	<g>
		<path class="st3" d="M18.1,136.4h2.9V157h-2.9V136.4z"/>
		<path class="st3" d="M45,136.4l-9,20.6H33L24,136.4h3.2l7.4,16.9l7.5-16.9H45z"/>
		<path class="st3" d="M61.9,138.3c1.5,1.3,2.3,3,2.3,5.3s-0.8,4-2.3,5.3c-1.5,1.3-3.6,1.9-6.3,1.9h-5.1v6.2h-2.9v-20.6h8
			C58.3,136.4,60.4,137,61.9,138.3z M59.8,147c1-0.8,1.5-1.9,1.5-3.4c0-1.5-0.5-2.6-1.5-3.4c-1-0.8-2.4-1.2-4.3-1.2h-5v9.2h5
			C57.4,148.2,58.8,147.8,59.8,147z"/>
		<path class="st3" d="M72.8,142c1-0.5,2.1-0.7,3.5-0.7v2.7c-0.2,0-0.4,0-0.6,0c-1.5,0-2.7,0.5-3.6,1.4c-0.9,0.9-1.3,2.2-1.3,3.9
			v7.8h-2.8v-15.6h2.7v2.6C71.1,143.1,71.8,142.4,72.8,142z"/>
		<path class="st3" d="M82.1,156.2c-1.2-0.7-2.2-1.6-2.9-2.8c-0.7-1.2-1-2.6-1-4.1c0-1.5,0.3-2.9,1-4.1c0.7-1.2,1.7-2.1,2.9-2.8
			c1.2-0.7,2.6-1,4.2-1c1.6,0,2.9,0.3,4.2,1c1.2,0.7,2.2,1.6,2.9,2.8c0.7,1.2,1,2.6,1,4.1c0,1.5-0.3,2.9-1,4.1
			c-0.7,1.2-1.7,2.2-2.9,2.8c-1.2,0.7-2.6,1-4.2,1C84.7,157.2,83.3,156.8,82.1,156.2z M89,154c0.8-0.5,1.4-1.1,1.9-1.9
			c0.5-0.8,0.7-1.8,0.7-2.9c0-1.1-0.2-2-0.7-2.9c-0.5-0.8-1.1-1.5-1.9-1.9c-0.8-0.5-1.7-0.7-2.7-0.7c-1,0-1.9,0.2-2.7,0.7
			c-0.8,0.5-1.4,1.1-1.9,1.9c-0.5,0.8-0.7,1.8-0.7,2.9c0,1.1,0.2,2,0.7,2.9c0.5,0.8,1.1,1.5,1.9,1.9s1.7,0.7,2.7,0.7
			C87.3,154.7,88.2,154.5,89,154z"/>
		<path class="st3" d="M110.6,142.3c1.2,0.7,2.1,1.6,2.8,2.8c0.7,1.2,1,2.6,1,4.2c0,1.6-0.3,3-1,4.2s-1.6,2.1-2.8,2.8
			c-1.2,0.7-2.6,1-4.1,1c-1.1,0-2.1-0.2-3.1-0.6c-0.9-0.4-1.7-1.1-2.4-1.9v8.1h-2.8v-21.3h2.7v2.5c0.6-0.9,1.4-1.5,2.4-2
			c1-0.4,2-0.7,3.2-0.7C108.1,141.3,109.4,141.6,110.6,142.3z M109,154c0.8-0.5,1.4-1.1,1.9-1.9c0.5-0.8,0.7-1.8,0.7-2.9
			c0-1.1-0.2-2-0.7-2.9c-0.5-0.8-1.1-1.5-1.9-1.9c-0.8-0.5-1.7-0.7-2.7-0.7c-1,0-1.9,0.2-2.7,0.7c-0.8,0.5-1.4,1.1-1.9,1.9
			c-0.5,0.8-0.7,1.8-0.7,2.9c0,1.1,0.2,2,0.7,2.9c0.5,0.8,1.1,1.5,1.9,1.9c0.8,0.5,1.7,0.7,2.7,0.7C107.3,154.7,108.2,154.5,109,154
			z"/>
		<path class="st3" d="M132.4,150.2h-12.7c0.2,1.4,0.8,2.5,1.8,3.3c1,0.8,2.3,1.3,3.8,1.3c1.9,0,3.4-0.6,4.5-1.9l1.6,1.8
			c-0.7,0.8-1.6,1.5-2.6,1.9c-1.1,0.4-2.2,0.6-3.5,0.6c-1.6,0-3.1-0.3-4.4-1c-1.3-0.7-2.3-1.6-3-2.8c-0.7-1.2-1-2.6-1-4.1
			c0-1.5,0.3-2.9,1-4.1s1.6-2.2,2.8-2.8c1.2-0.7,2.5-1,4-1c1.5,0,2.8,0.3,4,1c1.2,0.7,2.1,1.6,2.7,2.8s1,2.6,1,4.2
			C132.5,149.5,132.5,149.8,132.4,150.2z M121.4,144.9c-0.9,0.8-1.4,1.9-1.6,3.2h10c-0.2-1.3-0.7-2.4-1.6-3.2
			c-0.9-0.8-2-1.3-3.4-1.3C123.4,143.6,122.3,144.1,121.4,144.9z"/>
		<path class="st3" d="M141.3,142c1-0.5,2.1-0.7,3.5-0.7v2.7c-0.2,0-0.4,0-0.6,0c-1.5,0-2.7,0.5-3.6,1.4c-0.9,0.9-1.3,2.2-1.3,3.9
			v7.8h-2.8v-15.6h2.7v2.6C139.6,143.1,140.3,142.4,141.3,142z"/>
		<path class="st3" d="M157.7,156.1c-0.4,0.4-0.9,0.6-1.5,0.8c-0.6,0.2-1.2,0.3-1.9,0.3c-1.6,0-2.8-0.4-3.7-1.3
			c-0.9-0.8-1.3-2.1-1.3-3.6v-8.6h-2.6v-2.3h2.6V138h2.8v3.4h4.5v2.3h-4.5v8.5c0,0.8,0.2,1.5,0.6,1.9c0.4,0.5,1,0.7,1.8,0.7
			c0.9,0,1.6-0.2,2.2-0.7L157.7,156.1z"/>
		<path class="st3" d="M161.1,137.9c-0.4-0.4-0.5-0.8-0.5-1.3c0-0.5,0.2-0.9,0.5-1.3s0.8-0.5,1.4-0.5c0.5,0,1,0.2,1.4,0.5
			s0.5,0.8,0.5,1.3c0,0.5-0.2,1-0.5,1.3s-0.8,0.5-1.4,0.5C162,138.4,161.5,138.2,161.1,137.9z M161.1,141.4h2.8V157h-2.8V141.4z"/>
		<path class="st3" d="M183.3,150.2h-12.7c0.2,1.4,0.8,2.5,1.8,3.3c1,0.8,2.3,1.3,3.8,1.3c1.9,0,3.4-0.6,4.5-1.9l1.6,1.8
			c-0.7,0.8-1.6,1.5-2.6,1.9c-1.1,0.4-2.2,0.6-3.5,0.6c-1.6,0-3.1-0.3-4.4-1c-1.3-0.7-2.3-1.6-3-2.8c-0.7-1.2-1-2.6-1-4.1
			c0-1.5,0.3-2.9,1-4.1s1.6-2.2,2.8-2.8c1.2-0.7,2.5-1,4-1c1.5,0,2.8,0.3,4,1c1.2,0.7,2.1,1.6,2.7,2.8s1,2.6,1,4.2
			C183.4,149.5,183.4,149.8,183.3,150.2z M172.3,144.9c-0.9,0.8-1.4,1.9-1.6,3.2h10c-0.2-1.3-0.7-2.4-1.6-3.2s-2-1.3-3.4-1.3
			C174.3,143.6,173.2,144.1,172.3,144.9z"/>
		<path class="st3" d="M188.1,156.7c-1.2-0.3-2.1-0.8-2.8-1.3l1.2-2.2c0.7,0.5,1.5,0.9,2.5,1.2c1,0.3,2,0.4,3,0.4
			c2.5,0,3.7-0.7,3.7-2.1c0-0.5-0.2-0.8-0.5-1.1c-0.3-0.3-0.8-0.5-1.3-0.6s-1.2-0.3-2.1-0.4c-1.3-0.2-2.3-0.4-3.1-0.7
			c-0.8-0.3-1.5-0.7-2-1.3c-0.6-0.6-0.9-1.5-0.9-2.6c0-1.4,0.6-2.5,1.8-3.4c1.2-0.9,2.8-1.3,4.7-1.3c1,0,2.1,0.1,3.1,0.4
			c1,0.3,1.9,0.6,2.6,1l-1.2,2.2c-1.3-0.8-2.8-1.2-4.5-1.2c-1.2,0-2.1,0.2-2.7,0.6c-0.6,0.4-0.9,0.9-0.9,1.6c0,0.5,0.2,0.9,0.5,1.2
			c0.4,0.3,0.8,0.5,1.3,0.6c0.5,0.1,1.3,0.3,2.2,0.5c1.3,0.2,2.3,0.4,3,0.7c0.8,0.2,1.4,0.7,2,1.3c0.5,0.6,0.8,1.4,0.8,2.5
			c0,1.4-0.6,2.5-1.8,3.4s-2.9,1.3-4.9,1.3C190.5,157.2,189.3,157,188.1,156.7z"/>
	</g>
</g>
</svg>
